<svg id="visual" viewBox="0 0 960 540" width="960" height="540" xmlns="http://www.w3.org/2000/svg" xmlns:xlink="http://www.w3.org/1999/xlink" version="1.1"><rect x="0" y="0" width="960" height="540" fill="#001220"></rect><defs><linearGradient id="grad1_0" x1="43.8%" y1="0%" x2="100%" y2="100%"><stop offset="14.444444444444446%" stop-color="#001220" stop-opacity="1"></stop><stop offset="85.55555555555554%" stop-color="#001220" stop-opacity="1"></stop></linearGradient></defs><defs><linearGradient id="grad2_0" x1="0%" y1="0%" x2="56.3%" y2="100%"><stop offset="14.444444444444446%" stop-color="#001220" stop-opacity="1"></stop><stop offset="85.55555555555554%" stop-color="#001220" stop-opacity="1"></stop></linearGradient></defs><g transform="translate(960, 0)"><path d="M0 486C-56.6 464.7 -113.3 443.4 -175.7 424.1C-238 404.7 -306.2 387.3 -343.7 343.7C-381.1 300 -387.9 230 -406.5 168.4C-425.1 106.7 -455.6 53.4 -486 0L0 0Z" fill="#001e3c"></path></g><g transform="translate(0, 540)"><path d="M0 -486C66.8 -483.4 133.6 -480.7 186 -449C238.4 -417.3 276.3 -356.5 303.3 -303.3C330.4 -250.2 346.5 -204.7 375.1 -155.4C403.7 -106.1 444.9 -53 486 0L0 0Z" fill="#001e3c"></path></g></svg>