<svg id="visual" viewBox="0 0 1400 4200" width="1400" height="4200" xmlns="http://www.w3.org/2000/svg" xmlns:xlink="http://www.w3.org/1999/xlink" version="1.1"><rect width="1400" height="4200" fill="#001829"></rect><g><g transform="translate(1361 132)"><path d="M0 -160.3L160.3 0L0 160.3L-160.3 0Z" fill="#297EA6"></path></g><g transform="translate(1050 2014)"><path d="M0 -155L155 0L0 155L-155 0Z" fill="#297EA6"></path></g><g transform="translate(52 1317)"><path d="M0 -108L108 0L0 108L-108 0Z" fill="#297EA6"></path></g><g transform="translate(494 2692)"><path d="M0 -95L95 0L0 95L-95 0Z" fill="#297EA6"></path></g><g transform="translate(1154 2977)"><path d="M0 -111L111 0L0 111L-111 0Z" fill="#297EA6"></path></g><g transform="translate(1230 2512)"><path d="M0 -109L109 0L0 109L-109 0Z" fill="#297EA6"></path></g><g transform="translate(707 817)"><path d="M0 -148L148 0L0 148L-148 0Z" fill="#297EA6"></path></g><g transform="translate(247 3914)"><path d="M0 -145L145 0L0 145L-145 0Z" fill="#297EA6"></path></g><g transform="translate(930 4196)"><path d="M0 -138L138 0L0 138L-138 0Z" fill="#297EA6"></path></g><g transform="translate(802 1614)"><path d="M0 -108L108 0L0 108L-108 0Z" fill="#297EA6"></path></g><g transform="translate(527 175)"><path d="M0 -150L150 0L0 150L-150 0Z" fill="#297EA6"></path></g><g transform="translate(1081 3301)"><path d="M0 -82L82 0L0 82L-82 0Z" fill="#297EA6"></path></g><g transform="translate(602 1967)"><path d="M0 -115L115 0L0 115L-115 0Z" fill="#297EA6"></path></g><g transform="translate(1183 3912)"><path d="M0 -84L84 0L0 84L-84 0Z" fill="#297EA6"></path></g></g></svg>